<svg xmlns="http://www.w3.org/2000/svg" width="64" height="64" viewBox="0 0 64 64" fill="none">
  <rect width="64" height="64" rx="18" fill="#122740" />
  <path
    d="M22 15.5C22 14.12 23.12 13 24.5 13H39.5C40.88 13 42 14.12 42 15.5V18H45C46.1 18 47 18.9 47 20V45C47 47.21 45.21 49 43 49H21C18.79 49 17 47.21 17 45V20C17 18.9 17.9 18 19 18H22V15.5Z"
    fill="#F8FBFC"
  />
  <path
    d="M26 18V17C26 16.45 26.45 16 27 16H37C37.55 16 38 16.45 38 17V18H26Z"
    fill="#D9EEF0"
  />
  <path
    d="M23 27.5C23 26.67 23.67 26 24.5 26H39.5C40.33 26 41 26.67 41 27.5C41 28.33 40.33 29 39.5 29H24.5C23.67 29 23 28.33 23 27.5Z"
    fill="#D2DCE9"
  />
  <path
    d="M23 34.5C23 33.67 23.67 33 24.5 33H33.5C34.33 33 35 33.67 35 34.5C35 35.33 34.33 36 33.5 36H24.5C23.67 36 23 35.33 23 34.5Z"
    fill="#D2DCE9"
  />
  <path
    d="M28.39 45.28L23.8 40.69C23.21 40.1 23.21 39.15 23.8 38.57C24.38 37.98 25.33 37.98 25.92 38.57L28.39 41.04L38.08 31.35C38.67 30.76 39.62 30.76 40.2 31.35C40.79 31.93 40.79 32.88 40.2 33.47L30.51 43.16L29.45 44.22C28.87 44.81 27.92 44.81 27.33 44.22L28.39 45.28Z"
    fill="#0E8C7A"
  />
</svg>
