<svg xmlns="http://www.w3.org/2000/svg" width="1200" height="630" viewBox="0 0 1200 630" role="img" aria-labelledby="title desc">
  <title id="title">健康経営ガイドマップ</title>
  <desc id="desc">健康経営の好事例を学び、セルフチェックで次の一手を見つけるガイドサイトのOGP画像</desc>
  <rect width="1200" height="630" fill="#f4f8f6" />
  <path d="M0 490 C180 430 300 560 500 495 C700 430 820 500 1200 390 L1200 630 L0 630 Z" fill="#dbece4" />
  <path d="M0 535 C210 470 390 595 600 535 C790 480 940 530 1200 465 L1200 630 L0 630 Z" fill="#1f8a70" opacity="0.18" />
  <rect x="82" y="82" width="132" height="132" rx="28" fill="#1a3a5c" />
  <path d="M148 177 C118 157 103 132 110 111 C117 88 143 87 148 107 C153 87 179 88 186 111 C193 132 178 157 148 177 Z" fill="#ffffff" />
  <path d="M111 142 H135 L143 125 L158 158 L168 142 H185" fill="none" stroke="#63c29d" stroke-width="9" stroke-linecap="round" stroke-linejoin="round" />
  <text x="250" y="130" fill="#1a3a5c" font-size="30" font-family="Meiryo, 'Hiragino Kaku Gothic ProN', sans-serif" font-weight="700">フロム・シェフ</text>
  <text x="82" y="292" fill="#1a3a5c" font-size="64" font-family="Meiryo, 'Hiragino Kaku Gothic ProN', sans-serif" font-weight="800">健康経営ガイドマップ</text>
  <text x="86" y="374" fill="#33556c" font-size="30" font-family="Meiryo, 'Hiragino Kaku Gothic ProN', sans-serif">好事例を学び、セルフチェックで次の一手を見つける</text>
  <text x="86" y="452" fill="#33556c" font-size="28" font-family="Meiryo, 'Hiragino Kaku Gothic ProN', sans-serif">企業100社の取り組みを検索・整理</text>
  <rect x="82" y="510" width="340" height="54" rx="27" fill="#ffffff" />
  <text x="112" y="546" fill="#1f8a70" font-size="24" font-family="Meiryo, 'Hiragino Kaku Gothic ProN', sans-serif" font-weight="700">kenkokeiei-check.com</text>
</svg>
